<?xml version="1.0" encoding="UTF-8" standalone="no"?>
<!-- Generator: Adobe Illustrator 26.3.1, SVG Export Plug-In . SVG Version: 6.00 Build 0)  -->

<svg
   xmlns:dc="http://purl.org/dc/elements/1.1/"
   xmlns:cc="http://creativecommons.org/ns#"
   xmlns:rdf="http://www.w3.org/1999/02/22-rdf-syntax-ns#"
   xmlns:svg="http://www.w3.org/2000/svg"
   xmlns="http://www.w3.org/2000/svg"
   xmlns:sodipodi="http://sodipodi.sourceforge.net/DTD/sodipodi-0.dtd"
   xmlns:inkscape="http://www.inkscape.org/namespaces/inkscape"
   version="1.1"
   id="Layer_1"
   x="0px"
   y="0px"
   width="185px"
   height="188px"
   viewBox="0 0 185 188"
   enable-background="new 0 0 185 188"
   xml:space="preserve"
   sodipodi:docname="logos.svg"
   inkscape:version="0.92.5 (2060ec1f9f, 2020-04-08)"><metadata
   id="metadata121"><rdf:RDF><cc:Work
       rdf:about=""><dc:format>image/svg+xml</dc:format><dc:type
         rdf:resource="http://purl.org/dc/dcmitype/StillImage" /><dc:title /></cc:Work></rdf:RDF></metadata><defs
   id="defs119">
	
	
	

		
		
		
		
		
		
		
		
		
		
	</defs><sodipodi:namedview
   pagecolor="#ffffff"
   bordercolor="#666666"
   borderopacity="1"
   objecttolerance="10"
   gridtolerance="10"
   guidetolerance="10"
   inkscape:pageopacity="0"
   inkscape:pageshadow="2"
   inkscape:window-width="1920"
   inkscape:window-height="1016"
   id="namedview117"
   showgrid="false"
   inkscape:zoom="7.1011575"
   inkscape:cx="130.9831"
   inkscape:cy="91.621945"
   inkscape:window-x="0"
   inkscape:window-y="0"
   inkscape:window-maximized="1"
   inkscape:current-layer="g102" />
<g
   id="g38">
	
	<path
   inkscape:connector-curvature="0"
   id="path6"
   d="m 54.8,35.8 c 0.1,-1.1 0.2,-2.1 0.3,-2.9 0.1,-0.9 0.1,-1.9 0.2,-3 0,-1.2 0.1,-2.4 0.1,-3.6 0,-1.3 0,-2.3 0,-3 0.8,0 1.4,0 1.9,0 0.5,0 1.1,0 1.8,0 0.7,0 1.4,0 2.1,0 0.8,0 1.5,0 2.1,0.1 0.5,0 0.9,0.1 1.3,0.3 0.4,0.1 0.7,0.3 1,0.5 0.3,0.2 0.5,0.4 0.6,0.7 0.1,0.3 0.3,0.5 0.4,0.8 0.1,0.3 0.1,0.7 0.1,1 0,0.4 -0.1,0.8 -0.2,1.2 -0.1,0.4 -0.3,0.7 -0.5,1 -0.2,0.3 -0.5,0.6 -0.9,0.8 -0.3,0.2 -0.8,0.5 -1.4,0.7 l 0.5,1.2 c 0.1,0.3 0.3,0.7 0.4,1 l 1.2,2.7 c 0.1,0.1 0.2,0.3 0.3,0.7 -1,0 -1.7,0 -2.1,0 -0.4,0 -1.2,0 -2.2,0 C 61.7,35.7 61.5,35.1 61.3,34.2 61.2,33.8 61.1,33.6 61,33.4 60.9,33 60.6,32.3 60.3,31.6 l -1,-2.6 c 0.3,0.1 0.7,0.1 1,0.1 0.5,0 0.9,-0.1 1.2,-0.2 0.4,-0.1 0.6,-0.3 0.8,-0.6 0.2,-0.3 0.3,-0.6 0.3,-0.9 0,-0.3 -0.1,-0.5 -0.2,-0.7 -0.1,-0.2 -0.4,-0.4 -0.7,-0.4 -0.1,-0.5 -0.5,-0.5 -1.2,-0.5 -0.2,0 -0.4,0 -0.7,0 -0.2,0 -0.5,0 -0.8,0 -0.1,1.3 -0.1,2.8 -0.2,4.6 -0.1,1.8 -0.1,3.6 -0.1,5.4 -1,0 -1.7,0 -2,0 -0.4,0 -1,0 -1.9,0 z" /><path
   inkscape:connector-curvature="0"
   id="path8"
   d="m 68.1,35.8 c 0.2,-1.6 0.3,-2.9 0.3,-4 0,-1.1 0.1,-2.5 0.2,-4.3 0.1,-1.8 0.1,-3 0.1,-3.5 v -0.8 c 1.5,0 3.2,0 5.3,0 1.9,0 3.6,0 5.1,0 v 0.3 c 0,0.1 0,0.3 0,0.8 l -0.1,1 c 0,0.2 0,0.4 0,0.7 -1.2,0 -2.2,-0.1 -3,-0.1 -0.9,0 -1.5,0 -1.8,0 -0.3,0 -0.8,0 -1.5,0 L 72.6,28 c 0.7,0 1.6,0 2.6,0 0.3,0 1.3,0 2.8,-0.1 -0.1,0.8 -0.1,1.7 -0.2,2.8 -1.1,0 -1.9,0 -2.5,0 -0.9,0 -1.8,0 -2.9,0.1 l -0.1,2.3 h 1.1 c 0.3,0 1,0 2,0 h 1.9 c 0.3,0 0.8,0 1.4,-0.1 -0.1,0.9 -0.1,1.9 -0.2,2.8 -1.5,0 -3.2,0 -5,0 h -4.1 z" /><path
   inkscape:connector-curvature="0"
   id="path10"
   d="m 91.6,32.7 c -0.1,0.4 -0.2,0.9 -0.3,1.5 -0.1,0.7 -0.2,1.2 -0.2,1.5 -1.3,0.2 -2.5,0.3 -3.5,0.3 -1,0 -1.9,-0.1 -2.8,-0.4 -0.9,-0.2 -1.7,-0.7 -2.4,-1.2 -0.7,-0.6 -1.2,-1.2 -1.5,-2 -0.3,-0.8 -0.5,-1.6 -0.5,-2.6 0,-1.1 0.2,-2.1 0.6,-3 0.4,-0.9 1,-1.6 1.8,-2.2 0.8,-0.6 1.6,-1 2.6,-1.3 0.9,-0.3 1.9,-0.4 2.9,-0.4 0.9,0 2,0.1 3.4,0.4 v 0.8 c 0,0.3 0,0.7 0.1,1.1 l 0.1,1.1 c -0.7,-0.2 -1.3,-0.3 -1.8,-0.4 -0.5,-0.1 -0.9,-0.1 -1.3,-0.1 -0.8,0 -1.6,0.2 -2.3,0.5 -0.7,0.3 -1.2,0.8 -1.6,1.5 -0.4,0.6 -0.6,1.3 -0.6,2.1 0,0.7 0.2,1.3 0.5,1.8 0.3,0.5 0.8,0.9 1.3,1.2 0.5,0.3 1.2,0.4 2,0.4 0.4,0 0.9,0 1.4,-0.1 0.6,-0.1 1.3,-0.3 2.1,-0.5 z" /><path
   inkscape:connector-curvature="0"
   id="path12"
   d="m 101,22.9 c 1,0 1.9,0.1 2.9,0.4 0.9,0.3 1.7,0.7 2.4,1.3 0.7,0.6 1.2,1.3 1.5,2 0.3,0.8 0.5,1.6 0.5,2.6 0,1 -0.2,2 -0.6,2.9 -0.4,0.9 -0.9,1.6 -1.6,2.2 -0.7,0.6 -1.5,1 -2.5,1.3 -1,0.3 -2,0.4 -3.1,0.4 -1,0 -2,-0.1 -3,-0.4 -1,-0.3 -1.8,-0.7 -2.5,-1.3 -0.7,-0.6 -1.2,-1.3 -1.5,-2.1 -0.3,-0.8 -0.4,-1.6 -0.4,-2.5 0,-1.4 0.3,-2.5 0.9,-3.6 0.6,-1 1.6,-1.8 2.8,-2.4 1.3,-0.5 2.7,-0.8 4.2,-0.8 z m -0.2,2.8 c -0.7,0 -1.4,0.2 -1.9,0.5 -0.6,0.3 -1,0.8 -1.3,1.5 -0.3,0.6 -0.5,1.3 -0.5,2 0,0.7 0.1,1.3 0.4,1.8 0.3,0.5 0.7,1 1.3,1.3 0.6,0.3 1.2,0.5 1.8,0.5 0.7,0 1.3,-0.2 1.9,-0.5 0.6,-0.3 1,-0.8 1.3,-1.4 0.3,-0.6 0.5,-1.3 0.5,-2 0,-0.7 -0.1,-1.3 -0.4,-1.8 -0.3,-0.6 -0.7,-1 -1.2,-1.3 -0.6,-0.5 -1.2,-0.6 -1.9,-0.6 z" /><path
   inkscape:connector-curvature="0"
   id="path14"
   d="m 109.6,35.8 0.2,-1.9 0.6,-6.5 0.3,-4.3 c 1.1,0 2,0 2.7,0 0.5,0 1.4,0 2.5,0 0.1,0.5 0.1,0.9 0.2,1.2 0.1,0.3 0.2,0.8 0.4,1.6 0.2,0.8 0.4,1.5 0.5,2.1 0.1,0.6 0.3,1.6 0.6,3 0.3,-1 0.5,-1.8 0.7,-2.5 0.2,-0.7 0.5,-1.5 0.8,-2.4 0.3,-0.9 0.5,-1.5 0.6,-1.7 0.1,-0.3 0.2,-0.7 0.4,-1.3 0.9,0 1.8,0 2.7,0 0.6,0 1.4,0 2.5,0 -0.1,2.1 -0.2,3.9 -0.2,5.4 -0.1,2.9 -0.1,4.9 -0.1,6 0,0.2 0,0.6 0,1.2 -0.8,0 -1.4,0 -1.7,0 -0.5,0 -1.1,0 -1.8,0 0,-0.6 0.1,-1.9 0.2,-4 0.1,-2.1 0.1,-3.4 0.1,-4 0,-0.3 0,-0.6 0,-1.1 l -1.2,3.8 -1.7,5.3 c -0.8,0 -1.4,0 -1.7,0 -0.4,0 -1,0 -1.8,0 l -1.1,-5.1 -0.7,-2.7 c 0,-0.1 -0.1,-0.2 -0.1,-0.4 0,-0.2 -0.1,-0.4 -0.1,-0.8 l -0.2,2.6 -0.3,5.3 v 1.2 c -0.9,0 -1.4,0 -1.6,0 -0.4,0 -0.9,0 -1.7,0 z" /><path
   inkscape:connector-curvature="0"
   id="path16"
   d="m 127.3,35.8 c 0.1,-1.4 0.2,-2.4 0.3,-3.2 0.1,-1.1 0.1,-2.5 0.2,-4.4 0.1,-1.9 0.1,-3.2 0.1,-3.9 0,-0.3 0,-0.7 0,-1.2 0.8,0 1.5,0 2,0 0.7,0 1.5,0 2.4,0 0.9,0 1.7,0 2.3,0 0.8,0 1.3,0 1.7,0.1 0.4,0.1 0.8,0.2 1.1,0.3 0.3,0.1 0.6,0.3 0.8,0.5 0.2,0.2 0.4,0.5 0.6,0.9 0.2,0.4 0.2,0.8 0.2,1.3 0,0.4 0,0.7 -0.1,1 -0.1,0.3 -0.2,0.6 -0.4,0.9 -0.2,0.3 -0.3,0.5 -0.6,0.6 -0.2,0.2 -0.4,0.3 -0.6,0.4 -0.2,0.1 -0.5,0.2 -0.8,0.3 0.3,0.1 0.6,0.1 0.8,0.2 0.2,0.1 0.4,0.2 0.6,0.3 0.2,0.2 0.4,0.4 0.6,0.6 0.2,0.2 0.3,0.5 0.4,0.8 0.1,0.3 0.1,0.6 0.1,1 0,0.5 -0.1,0.9 -0.2,1.3 -0.2,0.4 -0.4,0.8 -0.6,1.1 -0.2,0.3 -0.5,0.5 -0.9,0.6 -0.4,0.2 -0.8,0.3 -1.2,0.4 -0.3,0 -0.9,0.1 -1.8,0.1 -0.9,0 -1.8,0 -2.7,0 h -2.4 z m 4,-2.5 h 1.8 c 0.5,0 0.8,0 1,-0.1 0.3,-0.1 0.5,-0.2 0.6,-0.3 0.1,-0.1 0.3,-0.3 0.3,-0.5 0.1,-0.2 0.1,-0.4 0.1,-0.6 0,-0.2 0,-0.4 -0.1,-0.5 -0.1,-0.2 -0.2,-0.3 -0.3,-0.4 -0.1,-0.1 -0.3,-0.2 -0.5,-0.2 -0.2,0 -0.5,-0.1 -0.9,-0.1 h -2 z m 0.2,-5.2 h 1.3 c 0.4,0 0.7,0 0.9,0 0.2,0 0.4,-0.1 0.5,-0.1 0.2,-0.1 0.3,-0.1 0.5,-0.3 0.2,-0.2 0.2,-0.3 0.3,-0.4 0.1,-0.2 0.1,-0.3 0.1,-0.5 0,-0.2 -0.1,-0.4 -0.2,-0.6 -0.1,-0.2 -0.3,-0.3 -0.5,-0.4 -0.2,-0.1 -0.6,-0.1 -1.1,-0.1 h -1.7 z" />
	
</g>
<g
   transform="translate(0,10.85)"
   id="g64">
		<path
   inkscape:connector-curvature="0"
   id="path44"
   d="m 55,89 c 0.1,-1.1 0.2,-2.1 0.3,-2.9 0.1,-0.9 0.1,-1.9 0.2,-3 0,-1.2 0.1,-2.4 0.1,-3.6 0,-1.3 0,-2.3 0,-3 0.8,0 1.4,0 1.9,0 0.5,0 1.1,0 1.8,0 0.7,0 1.4,0 2.1,0 0.8,0 1.5,0 2.1,0.1 0.5,0 0.9,0.1 1.3,0.3 0.4,0.1 0.7,0.3 1,0.5 0.3,0.2 0.5,0.4 0.6,0.7 0.1,0.3 0.3,0.5 0.4,0.8 0.1,0.3 0.1,0.7 0.1,1 0,0.4 -0.1,0.8 -0.2,1.2 -0.1,0.4 -0.3,0.7 -0.5,1 -0.2,0.3 -0.5,0.6 -0.9,0.8 -0.3,0.2 -0.8,0.5 -1.4,0.7 l 0.5,1.2 c 0.1,0.3 0.3,0.7 0.4,1 l 1.2,2.7 c 0.1,0.1 0.2,0.3 0.3,0.7 -1,0 -1.7,0 -2.1,0 -0.4,0 -1.2,0 -2.2,0 -0.1,-0.3 -0.3,-0.9 -0.5,-1.8 -0.1,-0.4 -0.2,-0.6 -0.3,-0.8 -0.1,-0.4 -0.4,-1.1 -0.7,-1.8 l -1,-2.6 c 0.3,0.1 0.7,0.1 1,0.1 0.5,0 0.9,-0.1 1.2,-0.2 0.4,-0.1 0.6,-0.3 0.8,-0.6 0.2,-0.3 0.3,-0.6 0.3,-0.9 0,-0.3 -0.1,-0.5 -0.2,-0.7 -0.1,-0.2 -0.4,-0.4 -0.7,-0.4 -0.3,-0.1 -0.8,-0.1 -1.4,-0.1 -0.2,0 -0.4,0 -0.7,0 -0.2,0 -0.5,0 -0.8,0 -0.1,1.3 -0.1,2.8 -0.2,4.6 0.2,1.4 0.2,3.2 0.1,5 -1,0 -1.7,0 -2,0 -0.3,-0.1 -1,-0.1 -1.9,0 z"
   style="fill:#999999" />
		<path
   inkscape:connector-curvature="0"
   id="path46"
   d="m 68.3,89 c 0.2,-1.6 0.3,-2.9 0.3,-4 0,-1.1 0.1,-2.5 0.2,-4.3 0.1,-1.8 0.1,-3 0.1,-3.5 v -0.8 c 1.5,0 3.2,0 5.3,0 1.9,0 3.6,0 5.1,0 v 0.3 c 0,0.1 0,0.3 0,0.8 l -0.1,1 c 0,0.2 0,0.4 0,0.7 C 78,79 77,79 76.2,79 c -0.9,0 -1.5,0 -1.8,0 -0.3,0 -0.8,0 -1.5,0 l -0.1,2.1 c 0.7,0 1.6,0 2.6,0 0.3,0 1.3,0 2.8,-0.1 -0.2,0.9 -0.2,1.9 -0.3,3 -1.1,0 -1.9,0 -2.5,0 -0.9,0 -1.8,0 -2.9,0.1 l -0.1,2.3 h 1.1 c 0.3,0 1,0 2,0 h 1.9 c 0.3,0 0.8,0 1.4,-0.1 0,0.7 -0.1,1.7 -0.1,2.7 -1.5,0 -3.2,0 -5,0 h -4.1 z"
   style="fill:#999999" />
		<path
   inkscape:connector-curvature="0"
   id="path48"
   d="m 91.8,85.9 c -0.1,0.4 -0.2,0.9 -0.3,1.5 -0.1,0.7 -0.2,1.2 -0.2,1.5 -1.3,0.2 -2.5,0.3 -3.5,0.3 -1,0 -1.9,-0.1 -2.8,-0.4 -0.9,-0.2 -1.7,-0.7 -2.4,-1.2 -0.7,-0.6 -1.2,-1.2 -1.5,-2 -0.3,-0.8 -0.5,-1.6 -0.5,-2.6 0,-1.1 0.2,-2.1 0.6,-3 0.4,-0.9 1,-1.6 1.8,-2.2 0.8,-0.6 1.6,-1 2.6,-1.3 0.9,-0.3 1.9,-0.4 2.9,-0.4 0.9,0 2,0.1 3.4,0.4 v 0.8 c 0,0.3 0,0.7 0.1,1.1 l 0.1,1.1 C 91.4,79.3 90.8,79.2 90.3,79.1 89.9,79 89.4,79 89.1,79 c -0.8,0 -1.6,0.2 -2.3,0.5 -0.7,0.3 -1.2,0.8 -1.6,1.5 -0.4,0.6 -0.6,1.3 -0.6,2.1 0,0.7 0.2,1.3 0.5,1.8 0.3,0.5 0.8,0.9 1.3,1.2 0.5,0.3 1.2,0.4 2,0.4 0.4,0 0.9,0 1.4,-0.1 0.6,-0.2 1.2,-0.3 2,-0.5 z"
   style="fill:#999999" />
		<path
   inkscape:connector-curvature="0"
   id="path50"
   d="m 101.2,76 c 1,0 1.9,0.1 2.9,0.4 0.9,0.3 1.7,0.7 2.4,1.3 0.7,0.6 1.2,1.3 1.5,2 0.3,0.8 0.5,1.6 0.5,2.6 0,1 -0.2,2 -0.6,2.9 -0.4,0.9 -0.9,1.6 -1.6,2.2 -0.7,0.6 -1.5,1 -2.5,1.3 -1,0.3 -2,0.4 -3.1,0.4 -1,0 -2,-0.1 -3,-0.4 -1,-0.3 -1.8,-0.7 -2.5,-1.3 -0.7,-0.6 -1.2,-1.3 -1.5,-2.1 -0.3,-0.8 -0.4,-1.6 -0.4,-2.5 0,-1.4 0.3,-2.5 0.9,-3.6 0.6,-1 1.6,-1.8 2.8,-2.4 1.3,-0.5 2.7,-0.8 4.2,-0.8 z m -0.1,2.8 c -0.7,0 -1.4,0.2 -1.9,0.5 -0.6,0.3 -1,0.8 -1.3,1.5 -0.3,0.6 -0.5,1.3 -0.5,2 0,0.7 0.1,1.3 0.4,1.8 0.3,0.5 0.7,1 1.3,1.3 0.6,0.3 1.2,0.5 1.8,0.5 0.7,0 1.3,-0.2 1.9,-0.5 0.6,-0.3 1,-0.8 1.3,-1.4 0.3,-0.6 0.5,-1.3 0.5,-2 0,-0.7 -0.1,-1.3 -0.4,-1.8 -0.3,-0.6 -0.7,-1 -1.2,-1.3 -0.7,-0.4 -1.3,-0.6 -1.9,-0.6 z"
   style="fill:#999999" />
		<path
   inkscape:connector-curvature="0"
   id="path52"
   d="m 109.8,89 0.2,-1.9 0.6,-6.5 0.3,-4.3 c 1.1,0 2,0 2.7,0 0.5,0 1.4,0 2.5,0 0.1,0.5 0.1,0.9 0.2,1.2 0.1,0.3 0.2,0.8 0.4,1.6 0.2,0.8 0.4,1.5 0.5,2.1 0.1,0.6 0.3,1.6 0.6,3 0.3,-1 0.5,-1.8 0.7,-2.5 0.2,-0.7 0.5,-1.5 0.8,-2.4 0.3,-0.9 0.5,-1.5 0.6,-1.7 0.1,-0.3 0.2,-0.7 0.4,-1.3 0.9,0 1.8,0 2.7,0 0.6,0 1.4,0 2.5,0 -0.1,2.1 -0.2,3.9 -0.2,5.4 -0.1,2.9 -0.1,4.9 -0.1,6 0,0.2 0,0.6 0,1.2 -0.8,0 -1.4,0 -1.7,0 -0.5,0 -1.1,0 -1.8,0 0,-0.6 0.1,-1.9 0.2,-4 0.1,-2.1 0.1,-3.4 0.1,-4 0,-0.3 0,-0.6 0,-1.1 l -1.2,3.8 -1.7,5.3 c -0.8,0 -1.4,0 -1.7,0 -0.4,0 -1,0 -1.8,0 l -1.1,-5.1 -0.7,-2.7 c 0,-0.1 -0.1,-0.2 -0.1,-0.4 0,-0.2 -0.1,-0.4 -0.1,-0.8 l -0.2,2.6 -0.3,5.3 V 89 c -0.9,0 -1.4,0 -1.6,0 -0.3,-0.1 -0.9,-0.1 -1.7,0 z"
   style="fill:#999999" />
		<path
   inkscape:connector-curvature="0"
   id="path54"
   d="m 127.6,89 c 0.1,-1.4 0.2,-2.4 0.3,-3.2 0.1,-1.1 0.1,-2.5 0.2,-4.4 0.1,-1.9 0.1,-3.2 0.1,-3.9 0,-0.3 0,-0.7 0,-1.2 0.8,0 1.5,0 2,0 0.7,0 1.5,0 2.4,0 0.9,0 1.7,0 2.3,0 0.8,0 1.3,0 1.7,0.1 0.4,0.1 0.8,0.2 1.1,0.3 0.3,0.1 0.6,0.3 0.8,0.5 0.2,0.2 0.4,0.5 0.6,0.9 0.2,0.4 0.2,0.8 0.2,1.3 0,0.4 0,0.7 -0.1,1 -0.1,0.3 -0.2,0.6 -0.4,0.9 -0.2,0.3 -0.3,0.5 -0.6,0.6 -0.2,0.2 -0.4,0.3 -0.6,0.4 -0.2,0.1 -0.5,0.2 -0.8,0.3 0.3,0.1 0.6,0.1 0.8,0.2 0.2,0.1 0.4,0.2 0.6,0.3 0.2,0.2 0.4,0.4 0.6,0.6 0.2,0.2 0.3,0.5 0.4,0.8 0.1,0.3 0.1,0.6 0.1,1 0,0.5 -0.1,0.9 -0.2,1.3 -0.2,0.4 -0.4,0.8 -0.6,1.1 -0.2,0.3 -0.5,0.5 -0.9,0.6 -0.4,0.2 -0.8,0.3 -1.2,0.4 -0.3,0 -0.9,0.1 -1.8,0.1 -0.9,0 -1.8,0 -2.7,0 h -2.4 z m 3.9,-2.6 h 1.8 c 0.5,0 0.8,0 1,-0.1 0.3,-0.1 0.5,-0.2 0.6,-0.3 0.1,-0.1 0.3,-0.3 0.3,-0.5 0.1,-0.2 0.1,-0.4 0.1,-0.6 0,-0.2 0,-0.4 -0.1,-0.5 -0.1,-0.2 -0.2,-0.3 -0.3,-0.4 -0.1,-0.1 -0.3,-0.2 -0.5,-0.2 -0.2,0 -0.5,-0.1 -0.9,-0.1 h -2 z m 0.2,-5.2 h 1.3 c 0.4,0 0.7,0 0.9,0 0.2,0 0.4,-0.1 0.5,-0.1 0.2,-0.1 0.3,-0.1 0.5,-0.3 0.2,-0.2 0.2,-0.3 0.3,-0.4 0.1,-0.2 0.1,-0.3 0.1,-0.5 0,-0.2 -0.1,-0.4 -0.2,-0.6 -0.1,-0.2 -0.3,-0.3 -0.5,-0.4 -0.2,-0.1 -0.6,-0.1 -1.1,-0.1 h -1.7 z"
   style="fill:#999999" />
		
		
		
		
	</g><g
   id="g74">
		
		
		
		
	</g>
<g
   id="g114">
	
	<g
   id="g102"
   transform="translate(0,10.8)">
		<path
   style="fill:#ffffff"
   d="m 54.8,153.5 c 0.1,-1.1 0.2,-2.1 0.3,-2.9 0.1,-0.9 0.1,-1.9 0.2,-3 0,-1.2 0.1,-2.4 0.1,-3.6 0,-1.3 0,-2.3 0,-3 0.8,0 1.4,0 1.9,0 0.5,0 1.1,0 1.8,0 0.7,0 1.4,0 2.1,0 0.8,0 1.5,0 2.1,0.1 0.5,0 0.9,0.1 1.3,0.3 0.4,0.1 0.7,0.3 1,0.5 0.3,0.2 0.5,0.4 0.6,0.7 0.2,0.2 0.3,0.5 0.4,0.8 0.1,0.3 0.1,0.7 0.1,1 0,0.4 -0.1,0.8 -0.2,1.2 -0.1,0.4 -0.3,0.7 -0.5,1 -0.2,0.3 -0.5,0.6 -0.9,0.8 -0.3,0.2 -0.8,0.5 -1.4,0.7 l 0.5,1.2 c 0.1,0.3 0.3,0.7 0.4,1 l 1.2,2.7 c 0.1,0.1 0.2,0.3 0.3,0.7 -1,0 -1.7,0 -2.1,0 -0.4,0 -1.2,0 -2.2,0 -0.1,-0.3 -0.3,-0.9 -0.5,-1.8 -0.1,-0.4 -0.2,-0.6 -0.3,-0.8 -0.1,-0.4 -0.4,-1.1 -0.7,-1.8 l -1,-2.6 c 0.3,0.1 0.7,0.1 1,0.1 0.5,0 0.9,-0.1 1.2,-0.2 0.4,-0.1 0.6,-0.3 0.8,-0.6 0.2,-0.3 0.3,-0.6 0.3,-0.9 0,-0.3 -0.1,-0.5 -0.2,-0.7 -0.1,-0.2 -0.4,-0.3 -0.7,-0.4 -0.3,-0.1 -0.8,-0.1 -1.4,-0.1 -0.2,0 -0.4,0 -0.7,0 -0.2,0 -0.5,0 -0.8,0 -0.1,1.3 -0.1,2.8 -0.2,4.6 -0.1,1.8 -0.1,3.6 -0.1,5.4 -1,0 -1.7,0 -2,0 -0.1,-0.5 -0.8,-0.4 -1.7,-0.4 z"
   id="path82"
   inkscape:connector-curvature="0" />
		<path
   style="fill:#ffffff"
   d="m 68.1,153.5 c 0.2,-1.6 0.3,-2.9 0.3,-4 0,-1.1 0.1,-2.5 0.2,-4.3 0.1,-1.8 0.1,-3 0.1,-3.5 v -0.8 c 1.5,0 3.2,0 5.3,0 1.9,0 3.6,0 5.1,0 v 0.3 c 0,0.1 0,0.3 0,0.8 l -0.1,1 c 0,0.2 0,0.4 0,0.7 -1.2,0 -2.2,-0.1 -3,-0.1 -0.9,0 -1.5,0 -1.8,0 -0.3,0 -0.8,0 -1.5,0 l -0.1,2.1 c 0.7,0 1.6,0 2.6,0 0.3,0 1.3,0 2.8,-0.1 -0.1,0.8 -0.1,1.7 -0.2,2.8 -1.1,0 -1.9,0 -2.5,0 -0.9,0 -1.8,0 -2.9,0.1 l -0.1,2.3 h 1.1 c 0.3,0 1,0 2,0 h 1.9 c 0.3,0 0.8,0 1.4,-0.1 -0.1,0.9 -0.1,1.9 -0.2,2.8 -1.5,0 -3.2,0 -5,0 h -4.1 z"
   id="path84"
   inkscape:connector-curvature="0" />
		<path
   style="fill:#ffffff"
   d="m 91.6,150.4 c -0.1,0.4 -0.2,0.9 -0.3,1.5 -0.1,0.7 -0.2,1.2 -0.2,1.5 -1.3,0.2 -2.5,0.3 -3.5,0.3 -1,0 -1.9,-0.1 -2.8,-0.4 -0.9,-0.2 -1.7,-0.7 -2.4,-1.2 -0.7,-0.6 -1.2,-1.2 -1.5,-2 -0.3,-0.8 -0.5,-1.6 -0.5,-2.6 0,-1.1 0.2,-2.1 0.6,-3 0.4,-0.9 1,-1.6 1.8,-2.2 0.8,-0.6 1.6,-1 2.6,-1.3 0.9,-0.3 1.9,-0.4 2.9,-0.4 0.9,0 2,0.1 3.4,0.4 v 0.8 c 0,0.3 0,0.7 0.1,1.1 l 0.1,1.1 c -0.7,-0.2 -1.3,-0.3 -1.8,-0.4 -0.4,-0.1 -0.9,-0.1 -1.2,-0.1 -0.8,0 -1.6,0.2 -2.3,0.5 -0.7,0.3 -1.2,0.8 -1.6,1.5 -0.4,0.6 -0.6,1.3 -0.6,2.1 0,0.7 0.2,1.3 0.5,1.8 0.3,0.5 0.8,0.9 1.3,1.2 0.5,0.3 1.2,0.4 2,0.4 0.4,0 0.9,0 1.4,-0.1 0.6,-0.2 1.2,-0.3 2,-0.5 z"
   id="path86"
   inkscape:connector-curvature="0" />
		<path
   style="fill:#ffffff"
   d="m 101,140.6 c 1,0 1.9,0.1 2.9,0.4 0.9,0.3 1.7,0.7 2.4,1.3 0.7,0.6 1.2,1.3 1.5,2 0.3,0.8 0.5,1.6 0.5,2.6 0,1 -0.2,2 -0.6,2.9 -0.4,0.9 -0.9,1.6 -1.6,2.2 -0.7,0.6 -1.5,1 -2.5,1.3 -1,0.3 -2,0.4 -3.1,0.4 -1,0 -2,-0.1 -3,-0.4 -1,-0.3 -1.8,-0.7 -2.5,-1.3 -0.7,-0.6 -1.2,-1.3 -1.5,-2.1 -0.3,-0.8 -0.4,-1.6 -0.4,-2.5 0,-1.4 0.3,-2.5 0.9,-3.6 0.6,-1 1.6,-1.8 2.8,-2.4 1.3,-0.6 2.7,-0.8 4.2,-0.8 z m -0.1,2.8 c -0.7,0 -1.4,0.2 -1.9,0.5 -0.5,0.3 -1,0.8 -1.3,1.5 -0.3,0.6 -0.5,1.3 -0.5,2 0,0.7 0.1,1.3 0.4,1.8 0.3,0.5 0.7,1 1.3,1.3 0.6,0.3 1.2,0.5 1.8,0.5 0.7,0 1.3,-0.2 1.9,-0.5 0.6,-0.3 1,-0.8 1.3,-1.4 0.3,-0.6 0.5,-1.3 0.5,-2 0,-0.7 -0.1,-1.3 -0.4,-1.8 -0.3,-0.6 -0.7,-1 -1.2,-1.3 -0.7,-0.5 -1.3,-0.6 -1.9,-0.6 z"
   id="path88"
   inkscape:connector-curvature="0" />
		<path
   style="fill:#ffffff"
   d="m 109.6,153.5 0.2,-1.9 0.6,-6.5 0.3,-4.3 c 1.1,0 2,0 2.7,0 0.5,0 1.4,0 2.5,0 0.1,0.5 0.1,0.9 0.2,1.2 0.1,0.3 0.2,0.8 0.4,1.6 0.2,0.8 0.4,1.5 0.5,2.1 0.1,0.6 0.3,1.6 0.6,3 0.3,-1 0.5,-1.8 0.7,-2.5 0.2,-0.7 0.5,-1.5 0.8,-2.4 0.3,-0.9 0.5,-1.5 0.6,-1.7 0.1,-0.3 0.2,-0.7 0.4,-1.3 0.9,0 1.8,0 2.7,0 0.6,0 1.4,0 2.5,0 -0.1,2.1 -0.2,3.9 -0.2,5.4 -0.1,2.9 -0.1,4.9 -0.1,6 0,0.2 0,0.6 0,1.2 -0.8,0 -1.4,0 -1.7,0 -0.5,0 -1.1,0 -1.8,0 0,-0.6 0.1,-1.9 0.2,-4 0.1,-2.1 0.1,-3.4 0.1,-4 0,-0.3 0,-0.6 0,-1.1 l -1.2,3.8 -1.7,5.3 c -0.8,0 -1.4,0 -1.7,0 -0.4,0 -1,0 -1.8,0 l -1.1,-5.1 -0.7,-2.7 c 0,-0.1 -0.1,-0.2 -0.1,-0.4 0,-0.2 -0.1,-0.4 -0.1,-0.8 l -0.2,2.6 -0.3,5.3 v 1.2 c -0.9,0 -1.4,0 -1.6,0 -0.3,-0.1 -0.9,0 -1.7,0 z"
   id="path90"
   inkscape:connector-curvature="0" />
		<path
   style="fill:#ffffff"
   d="m 127.4,153.5 c 0.1,-1.4 0.2,-2.4 0.3,-3.2 0.1,-1.1 0.1,-2.5 0.2,-4.4 0.1,-1.9 0.1,-3.2 0.1,-3.9 0,-0.3 0,-0.7 0,-1.2 0.8,0 1.5,0 2,0 0.7,0 1.5,0 2.4,0 0.9,0 1.7,0 2.3,0 0.8,0 1.3,0 1.7,0.1 0.4,0.1 0.8,0.2 1.1,0.3 0.3,0.1 0.6,0.3 0.8,0.5 0.2,0.2 0.4,0.5 0.6,0.9 0.2,0.4 0.2,0.8 0.2,1.3 0,0.4 0,0.7 -0.1,1 -0.1,0.3 -0.2,0.6 -0.4,0.9 -0.2,0.2 -0.3,0.5 -0.6,0.6 -0.2,0.2 -0.4,0.3 -0.6,0.4 -0.2,0.1 -0.5,0.2 -0.8,0.3 0.3,0.1 0.6,0.1 0.8,0.2 0.2,0.1 0.4,0.2 0.6,0.3 0.2,0.2 0.4,0.4 0.6,0.6 0.2,0.2 0.3,0.5 0.4,0.8 0.1,0.3 0.1,0.6 0.1,1 0,0.5 -0.1,0.9 -0.2,1.3 -0.2,0.4 -0.4,0.8 -0.6,1.1 -0.2,0.3 -0.5,0.5 -0.9,0.6 -0.4,0.2 -0.8,0.3 -1.2,0.4 -0.3,0.1 -0.9,0.1 -1.8,0.1 -0.9,0 -1.8,0 -2.7,0 h -2.4 z m 3.9,-2.6 h 1.8 c 0.5,0 0.8,0 1,-0.1 0.3,-0.1 0.5,-0.2 0.6,-0.3 0.1,-0.1 0.3,-0.3 0.3,-0.5 0.1,-0.2 0.1,-0.4 0.1,-0.6 0,-0.2 0,-0.4 -0.1,-0.5 -0.1,-0.2 -0.2,-0.3 -0.3,-0.4 -0.1,-0.1 -0.3,-0.2 -0.5,-0.2 -0.2,0 -0.5,-0.1 -0.9,-0.1 h -2 z m 0.2,-5.2 h 1.3 c 0.4,0 0.7,0 0.9,0 0.2,0 0.4,-0.1 0.5,-0.1 0.2,-0.1 0.3,-0.1 0.5,-0.3 0.2,-0.2 0.2,-0.3 0.3,-0.4 0.1,-0.2 0.1,-0.3 0.1,-0.5 0,-0.2 -0.1,-0.4 -0.2,-0.6 -0.1,-0.2 -0.3,-0.3 -0.5,-0.4 -0.2,-0.1 -0.6,-0.1 -1.1,-0.1 h -1.7 z"
   id="path92"
   inkscape:connector-curvature="0" />
		
		
		
		
	</g>
	
</g>
</svg>